<?xml version="1.0" encoding="UTF-8" standalone="no"?>
<svg
   viewBox="0 0 527.93 505.07"
   version="1.1"
   id="svg27881"
   sodipodi:docname="werk_met_ons_tool_implementatie.svg"
   inkscape:version="1.2.2 (b0a8486541, 2022-12-01)"
   xmlns:inkscape="http://www.inkscape.org/namespaces/inkscape"
   xmlns:sodipodi="http://sodipodi.sourceforge.net/DTD/sodipodi-0.dtd"
   xmlns="http://www.w3.org/2000/svg"
   xmlns:svg="http://www.w3.org/2000/svg">
  <sodipodi:namedview
     id="namedview27883"
     pagecolor="#ffffff"
     bordercolor="#666666"
     borderopacity="1.0"
     inkscape:showpageshadow="2"
     inkscape:pageopacity="0.0"
     inkscape:pagecheckerboard="0"
     inkscape:deskcolor="#d1d1d1"
     showgrid="false"
     inkscape:zoom="1.9106262"
     inkscape:cx="263.78786"
     inkscape:cy="252.27331"
     inkscape:window-width="2560"
     inkscape:window-height="1403"
     inkscape:window-x="1920"
     inkscape:window-y="0"
     inkscape:window-maximized="1"
     inkscape:current-layer="svg27881" />
  <defs
     id="defs27835">
    <style
       id="style27833">.cls-1{fill:#0b0f0c;}.cls-1,.cls-2,.cls-3,.cls-4,.cls-5,.cls-6{stroke:#0b0f0c;stroke-linejoin:round;stroke-width:3px;}.cls-1,.cls-2,.cls-3,.cls-4,.cls-6{stroke-linecap:round;}.cls-2{fill:#b72894;}.cls-3{fill:#e1d9ce;}.cls-4,.cls-7{fill:#f3eee9;}.cls-8{fill:#410b32;}.cls-5,.cls-6{fill:none;}.cls-9{fill:#ff00b9;}</style>
  </defs>
  <g
     id="icons">
    <polygon
       class="cls-1"
       points="240.15 334.95 339.72 306.57 426.18 308.73 383.84 334.95 240.15 334.95"
       id="polygon27840" />
    <polygon
       class="cls-1"
       points="181.67 365.45 248.51 334.24 334.97 336.41 287.2 365.45 181.67 365.45"
       id="polygon27842" />
    <polygon
       class="cls-3"
       points="382.69 336.12 199.08 336.12 198.79 203.28 344.1 203.28 382.69 336.12"
       id="polygon27844" />
    <polygon
       class="cls-8"
       points="337.94 336.12 199.08 336.12 199.08 203.86 321.26 203.86 337.94 336.12"
       id="polygon27846" />
    <rect
       class="cls-3"
       x="208.98"
       y="194.12"
       width="85.1"
       height="101.45"
       id="rect27848" />
    <rect
       class="cls-2"
       x="152.83"
       y="233.99"
       width="132.86"
       height="132.26"
       id="rect27850" />
    <polygon
       class="cls-3"
       points="331.76 203.51 198.89 203.51 152.83 233.99 285.69 233.99 331.76 203.51"
       id="polygon27852" />
    <rect
       class="cls-4"
       x="208.98"
       y="154.22"
       width="85.1"
       height="63.64"
       id="rect27854" />
    <line
       class="cls-6"
       x1="194.5"
       y1="217.77"
       x2="284.32"
       y2="217.77"
       id="line27856" />
    <line
       class="cls-5"
       x1="208.02"
       y1="97.87"
       x2="208.02"
       y2="104.42"
       id="line27858" />
    <line
       class="cls-5"
       x1="208.02"
       y1="128.83"
       x2="208.02"
       y2="137.3"
       id="line27860" />
    <line
       class="cls-5"
       x1="208.02"
       y1="109.26"
       x2="208.02"
       y2="114.31"
       id="line27862" />
    <line
       class="cls-5"
       x1="194.26"
       y1="146.08"
       x2="194.26"
       y2="174.55"
       id="line27864" />
    <line
       class="cls-5"
       x1="194.26"
       y1="182.94"
       x2="194.26"
       y2="186.7"
       id="line27866" />
    <line
       class="cls-5"
       x1="194.26"
       y1="129.86"
       x2="194.26"
       y2="137.99"
       id="line27868" />
    <line
       class="cls-5"
       x1="194.26"
       y1="106.69"
       x2="194.26"
       y2="125.02"
       id="line27870" />
    <rect
       class="cls-5"
       x="218.5"
       y="161.39"
       width="13.73"
       height="13.73"
       rx="3.13"
       ry="3.13"
       id="rect27872" />
    <rect
       class="cls-9"
       x="218.5"
       y="184.98"
       width="13.73"
       height="13.73"
       rx="3.13"
       ry="3.13"
       id="rect27874" />
    <rect
       class="cls-5"
       x="218.5"
       y="184.98"
       width="13.73"
       height="13.73"
       rx="3.13"
       ry="3.13"
       id="rect27876" />
    <path
       class="cls-5"
       d="M218.5,217.77v-7.09c0-1.72,1.41-3.13,3.13-3.13h7.47c1.72,0,3.13,1.41,3.13,3.13v7.09"
       id="path27878" />
  </g>
</svg>
